<?xml version="1.0" encoding="utf-8"?>
<svg xmlns="http://www.w3.org/2000/svg"
	xmlns:xlink="http://www.w3.org/1999/xlink"
	width="20px" height="20px" viewBox="0 0 20 20">
<filter filterUnits="objectBoundingBox" x="0.00" y="0.00" width="100.00" height="100.00" id="filter0">
<feFlood flood-color="rgb(183,185,205)" result="coFloodOut1"/>
<feComposite in="coFloodOut1" in2="SourceAlpha" operator="in" result="coOverlay1"/>
<feBlend in="coOverlay1" in2="SourceGraphic" mode="normal" result="colorOverlay1"/>
</filter>
<path fillRule="evenodd" d="M 19.95 7.77C 19.95 7.77 19.97 7.77 19.97 7.77 19.97 7.77 17.47 19.02 17.47 19.02 17.47 19.02 17.45 19.01 17.45 19.01 17.32 19.57 16.85 20 16.25 20 16.25 20 3.75 20 3.75 20 3.15 20 2.68 19.57 2.55 19.01 2.55 19.01 2.53 19.02 2.53 19.02 2.53 19.02 0.03 7.77 0.03 7.77 0.03 7.77 0.05 7.77 0.05 7.77 0.03 7.68-0 7.59-0 7.5-0 6.81 0.56 6.25 1.25 6.25 1.25 6.25 3.75 6.25 3.75 6.25 3.75 2.8 6.55-0 10-0 13.45-0 16.25 2.8 16.25 6.25 16.25 6.25 18.75 6.25 18.75 6.25 19.44 6.25 20 6.81 20 7.5 20 7.59 19.97 7.68 19.95 7.77ZM 10 2.5C 7.93 2.5 6.25 4.18 6.25 6.25 6.25 6.25 13.75 6.25 13.75 6.25 13.75 4.18 12.07 2.5 10 2.5ZM 15 11.25C 14.31 11.25 13.75 10.69 13.75 10 13.75 10 13.75 8.75 13.75 8.75 13.75 8.75 6.25 8.75 6.25 8.75 6.25 8.75 6.25 10 6.25 10 6.25 10.69 5.69 11.25 5 11.25 4.31 11.25 3.75 10.69 3.75 10 3.75 10 3.75 8.75 3.75 8.75 3.75 8.75 2.81 8.75 2.81 8.75 2.81 8.75 4.75 17.5 4.75 17.5 4.75 17.5 15.25 17.5 15.25 17.5 15.25 17.5 17.19 8.75 17.19 8.75 17.19 8.75 16.25 8.75 16.25 8.75 16.25 8.75 16.25 10 16.25 10 16.25 10.69 15.69 11.25 15 11.25Z" fill="rgb(189,195,199)" opacity="0.70" filter="url(#filter0)"/></svg>