<?xml version="1.0" encoding="utf-8"?>
<svg xmlns="http://www.w3.org/2000/svg"
	xmlns:xlink="http://www.w3.org/1999/xlink"
	width="22px" height="22px" viewBox="0 0 22 22">
<filter filterUnits="objectBoundingBox" x="4.17" y="4.17" width="91.67" height="91.67" id="filter0">
<feFlood flood-color="rgb(255,255,255)" result="coFloodOut1"/>
<feComposite in="coFloodOut1" in2="SourceAlpha" operator="in" result="coOverlay1"/>
<feBlend in="coOverlay1" in2="SourceGraphic" mode="normal" result="colorOverlay1"/>
</filter>
<path fillRule="evenodd" d="M 19.4 18C 19.4 18 15.78 18 15.78 18 15.78 18 11.99 21.79 11.99 21.79 11.99 21.79 11.99 21.79 11.99 21.79 11.74 22.04 11.39 22.2 11 22.2 10.61 22.2 10.26 22.04 10.01 21.79 10.01 21.79 10.01 21.79 10.01 21.79 10.01 21.79 6.22 18 6.22 18 6.22 18 2.6 18 2.6 18 1.05 18-0.2 16.75-0.2 15.2-0.2 15.2-0.2 2.6-0.2 2.6-0.2 1.05 1.05-0.2 2.6-0.2 2.6-0.2 19.4-0.2 19.4-0.2 20.95-0.2 22.2 1.05 22.2 2.6 22.2 2.6 22.2 15.2 22.2 15.2 22.2 16.75 20.95 18 19.4 18ZM 19.4 4C 19.4 3.23 18.77 2.6 18 2.6 18 2.6 4 2.6 4 2.6 3.23 2.6 2.6 3.23 2.6 4 2.6 4 2.6 13.8 2.6 13.8 2.6 14.57 3.23 15.2 4 15.2 4 15.2 5.4 15.2 5.4 15.2 5.4 15.2 6.8 15.2 6.8 15.2 7.19 15.2 7.54 15.36 7.79 15.61 7.79 15.61 7.79 15.61 7.79 15.61 7.79 15.61 11 18.82 11 18.82 11 18.82 14.21 15.61 14.21 15.61 14.21 15.61 14.21 15.61 14.21 15.61 14.46 15.36 14.81 15.2 15.2 15.2 15.2 15.2 16.6 15.2 16.6 15.2 16.6 15.2 18 15.2 18 15.2 18.77 15.2 19.4 14.57 19.4 13.8 19.4 13.8 19.4 4 19.4 4ZM 15.2 12.4C 15.2 12.4 6.8 12.4 6.8 12.4 6.03 12.4 5.4 11.77 5.4 11 5.4 10.23 6.03 9.6 6.8 9.6 6.8 9.6 15.2 9.6 15.2 9.6 15.97 9.6 16.6 10.23 16.6 11 16.6 11.77 15.97 12.4 15.2 12.4ZM 15.2 8.2C 15.2 8.2 6.8 8.2 6.8 8.2 6.03 8.2 5.4 7.57 5.4 6.8 5.4 6.03 6.03 5.4 6.8 5.4 6.8 5.4 15.2 5.4 15.2 5.4 15.97 5.4 16.6 6.03 16.6 6.8 16.6 7.57 15.97 8.2 15.2 8.2Z" fill="rgb(189,195,199)" filter="url(#filter0)"/></svg>